ply
format ascii 1.0
comment VCGLIB generated
element vertex 36
property float x
property float y
property float z
property float nx
property float ny
property float nz
property float texture_u
property float texture_v
element face 12
property list uchar int vertex_indices
end_header
-1 -1 1 0 -1 0 0.330976 0.999023
-1 -1 -1 0 -1 0 0.000977 0.999023
1 -1 -1 0 -1 0 0.000977 0.669024
1 -1 1 0 -1 0 0.332357 0.667643
-1 1 0.999999 0 1 0 0.664309 0.999023
1 1 1 0 1 0 0.334310 0.999023
1 1 -1 0 1 0 0.334310 0.669024
-0.999999 1 -1.000001 0 1 0 0.665690 0.667643
-1 -1 1 -1 2.533196e-07 -2.533197e-07 0.997642 0.999023
-1 1 0.999999 -1 2.533196e-07 -2.533197e-07 0.667643 0.999023
-0.999999 1 -1.000001 -1 2.533196e-07 -2.533197e-07 0.667643 0.669024
-1 -1 -1 -1 2.533196e-07 -2.533197e-07 0.999023 0.667643
-1 -1 -1 2.384187e-07 -2.384187e-07 -1 0.330976 0.665690
-0.999999 1 -1.000001 2.384187e-07 -2.384187e-07 -1 0.000977 0.665690
1 1 -1 2.384187e-07 -2.384187e-07 -1 0.000977 0.335691
1 -1 -1 2.384187e-07 -2.384187e-07 -1 0.332357 0.334310
1 -1 -1 1 0 0 0.664309 0.665690
1 1 -1 1 0 0 0.334310 0.665690
1 1 1 1 0 0 0.334310 0.335691
1 -1 1 1 0 0 0.665690 0.334310
-1 1 0.999999 -2.533197e-07 2.533197e-07 1 0.997642 0.665690
-1 -1 1 -2.533197e-07 2.533197e-07 1 0.667643 0.665690
1 -1 1 -2.533197e-07 2.533197e-07 1 0.667643 0.335691
1 1 1 -2.533197e-07 2.533197e-07 1 0.999023 0.334310
-1 -1 1 0 -1 0 0.332357 0.997642
1 -1 -1 0 -1 0 0.002358 0.667643
-1 1 0.999999 0 1 0 0.665690 0.997642
1 1 -1 0 1 0 0.335691 0.667643
-1 -1 1 -1 2.533196e-07 -2.533197e-07 0.999023 0.997642
-0.999999 1 -1.000001 -1 2.533196e-07 -2.533197e-07 0.669024 0.667643
-1 -1 -1 2.384187e-07 -2.384187e-07 -1 0.332357 0.664309
1 1 -1 2.384187e-07 -2.384187e-07 -1 0.002358 0.334310
1 -1 -1 1 0 0 0.665690 0.664309
1 1 1 1 0 0 0.335691 0.334310
-1 1 0.999999 -2.533197e-07 2.533197e-07 1 0.999023 0.664309
1 -1 1 -2.533197e-07 2.533197e-07 1 0.669024 0.334310
3 0 1 2 
3 24 25 3 
3 4 5 6 
3 26 27 7 
3 8 9 10 
3 28 29 11 
3 12 13 14 
3 30 31 15 
3 16 17 18 
3 32 33 19 
3 20 21 22 
3 34 35 23 
