ply
format ascii 1.0
comment VCGLIB generated
element vertex 192
property float x
property float y
property float z
property float nx
property float ny
property float nz
property float texture_u
property float texture_v
element face 124
property list uchar int vertex_indices
end_header
0 -1 1 -0.1960373 0 1.990369 0.515946 0.774298
0 1 1 -0.09801866 0 0.9951846 0.515946 0.387149
-0.19509 1 0.980785 -0.1960373 0 1.990369 0.553893 0.387149
-0.19509 -1 0.980785 -0.09801866 0 0.9951846 0.553893 0.774298
-0.19509 -1 0.980785 -0.5805629 0 1.913883 0.553893 0.774298
-0.19509 1 0.980785 -0.2902815 0 0.9569414 0.553893 0.387149
-0.382683 1 0.92388 -0.5805629 0 1.913883 0.591111 0.387149
-0.382683 -1 0.92388 -0.2902815 0 0.9569414 0.591112 0.774298
-0.382683 -1 0.92388 -0.942793 0 1.763843 0.591112 0.774298
-0.382683 1 0.92388 -0.4713965 0 0.8819214 0.591111 0.387149
-0.55557 1 0.83147 -0.942793 0 1.763843 0.626170 0.387149
-0.55557 -1 0.83147 -0.4713965 0 0.8819214 0.626170 0.774298
-0.55557 -1 0.83147 -1.268785 0 1.546022 0.626170 0.774298
-0.55557 1 0.83147 -0.6343927 0 0.773011 0.626170 0.387149
-0.707107 1 0.707107 -1.268785 0 1.546022 0.657722 0.387149
-0.707107 -1 0.707107 -0.6343927 0 0.773011 0.657722 0.774298
-0.707107 -1 0.707107 -1.546022 0 1.268785 0.657722 0.774298
-0.707107 1 0.707107 -0.773011 0 0.6343927 0.657722 0.387149
-0.83147 1 0.55557 -1.546022 0 1.268785 0.684555 0.387149
-0.83147 -1 0.55557 -0.773011 0 0.6343927 0.684555 0.774298
-0.83147 -1 0.55557 -1.763843 0 0.942793 0.684555 0.774298
-0.83147 1 0.55557 -0.8819214 0 0.4713965 0.684555 0.387149
-0.92388 1 0.382683 -1.763843 0 0.942793 0.705637 0.387149
-0.92388 -1 0.382683 -0.8819214 0 0.4713965 0.705637 0.774298
-0.92388 -1 0.382683 -1.913883 0 0.5805629 0.705637 0.774298
-0.92388 1 0.382683 -0.9569414 0 0.2902815 0.705637 0.387149
-0.980785 1 0.19509 -1.913883 0 0.5805629 0.720159 0.387149
-0.980785 -1 0.19509 -0.9569414 0 0.2902815 0.720159 0.774298
-0.980785 -1 0.19509 -1.990369 0 0.1960373 0.720159 0.774298
-0.980785 1 0.19509 -0.9951846 0 0.09801866 0.720159 0.387149
-1 1 0 -1.990369 0 0.1960373 0.727562 0.387149
-1 -1 0 -0.9951846 0 0.09801866 0.727562 0.774298
-1 -1 0 -1.990369 0 -0.1960373 0.385285 0.387149
-1 1 0 -0.9951846 0 -0.09801866 0.385285 0.000000
-0.980785 1 -0.19509 -1.990369 0 -0.1960373 0.392688 0.000000
-0.980785 -1 -0.19509 -0.9951846 0 -0.09801866 0.392688 0.387149
-0.980785 -1 -0.19509 -1.913883 0 -0.5805629 0.392688 0.387149
-0.980785 1 -0.19509 -0.9569414 0 -0.2902815 0.392688 0.000000
-0.92388 1 -0.382683 -1.913883 0 -0.5805629 0.407210 0.000000
-0.92388 -1 -0.382683 -0.9569414 0 -0.2902815 0.407210 0.387149
-0.92388 -1 -0.382683 -1.763843 0 -0.942793 0.407210 0.387149
-0.92388 1 -0.382683 -0.8819214 0 -0.4713965 0.407210 0.000000
-0.83147 1 -0.55557 -1.763843 0 -0.942793 0.428292 0.000000
-0.83147 -1 -0.55557 -0.8819214 0 -0.4713965 0.428292 0.387149
-0.83147 -1 -0.55557 -1.546022 0 -1.268785 0.428292 0.387149
-0.83147 1 -0.55557 -0.773011 0 -0.6343927 0.428292 0.000000
-0.707107 1 -0.707107 -1.546022 0 -1.268785 0.455125 0.000000
-0.707107 -1 -0.707107 -0.773011 0 -0.6343927 0.455125 0.387149
-0.707107 -1 -0.707107 -1.268785 0 -1.546022 0.455125 0.387149
-0.707107 1 -0.707107 -0.6343927 0 -0.773011 0.455125 0.000000
-0.55557 1 -0.83147 -1.268785 0 -1.546022 0.486677 0.000000
-0.55557 -1 -0.83147 -0.6343927 0 -0.773011 0.486677 0.387149
-0.55557 -1 -0.83147 -0.942793 0 -1.763843 0.486677 0.387149
-0.55557 1 -0.83147 -0.4713965 0 -0.8819214 0.486677 0.000000
-0.382683 1 -0.92388 -0.942793 0 -1.763843 0.521735 0.000000
-0.382683 -1 -0.92388 -0.4713965 0 -0.8819214 0.521735 0.387149
-0.382683 -1 -0.92388 -0.5805629 0 -1.913883 0.521735 0.387149
-0.382683 1 -0.92388 -0.2902815 0 -0.9569414 0.521735 0.000000
-0.19509 1 -0.980785 -0.5805629 0 -1.913883 0.558954 0.000000
-0.19509 -1 -0.980785 -0.2902815 0 -0.9569414 0.558954 0.387149
-0.19509 -1 -0.980785 -0.1960373 0 -1.990369 0.558954 0.387149
-0.19509 1 -0.980785 -0.09801866 0 -0.9951846 0.558954 0.000000
0 1 -1 -0.1960373 0 -1.990369 0.596901 0.000000
0 -1 -1 -0.09801866 0 -0.9951846 0.596901 0.387149
0 -1 -1 0.1960363 0 -1.990369 0.596901 0.387149
0 1 -1 0.09801816 0 -0.9951847 0.596901 0.000000
0.195091 1 -0.980785 0.1960363 0 -1.990369 0.634119 0.000000
0.195091 -1 -0.980785 0.09801816 0 -0.9951847 0.634119 0.387149
0.195091 -1 -0.980785 0.5805719 0 -1.91388 0.634119 0.387149
0.195091 1 -0.980785 0.2902859 0 -0.95694 0.634119 0.000000
0.382684 1 -0.923879 0.5805719 0 -1.91388 0.669178 0.000000
0.382684 -1 -0.923879 0.2902859 0 -0.95694 0.669178 0.387149
0.382684 -1 -0.923879 0.9427934 0 -1.763843 0.669178 0.387149
0.382684 1 -0.923879 0.4713967 0 -0.8819214 0.669178 0.000000
0.555571 1 -0.831469 0.9427934 0 -1.763843 0.700730 0.000000
0.555571 -1 -0.831469 0.4713967 0 -0.8819214 0.700730 0.387149
0.555571 -1 -0.831469 1.26879 0 -1.546018 0.700730 0.387149
0.555571 1 -0.831469 0.6343952 0 -0.7730089 0.700730 0.000000
0.707107 1 -0.707106 1.26879 0 -1.546018 0.727562 0.000000
0.707107 -1 -0.707106 0.6343952 0 -0.7730089 0.727562 0.387149
0.707107 -1 -0.707106 1.546018 0 -1.26879 1.000000 0.000000
0.707107 1 -0.707106 0.7730089 0 -0.6343952 1.000000 0.387149
0.83147 1 -0.55557 1.546018 0 -1.26879 0.968448 0.387149
0.83147 -1 -0.55557 0.7730089 0 -0.6343952 0.968448 0.000000
0.83147 -1 -0.55557 1.763843 0 -0.942793 0.968448 0.000000
0.83147 1 -0.55557 0.8819214 0 -0.4713965 0.968448 0.387149
0.92388 1 -0.382683 1.763843 0 -0.942793 0.933389 0.387149
0.92388 -1 -0.382683 0.8819214 0 -0.4713965 0.933389 0.000000
0.92388 -1 -0.382683 1.913884 0 -0.5805601 0.933389 0.000000
0.92388 1 -0.382683 0.9569418 0 -0.2902801 0.933389 0.387149
0.980785 1 -0.195089 1.913884 0 -0.5805601 0.896171 0.387149
0.980785 -1 -0.195089 0.9569418 0 -0.2902801 0.896171 0.000000
0.980785 -1 -0.195089 1.990369 0 -0.1960373 0.896171 0.000000
0.980785 1 -0.195089 0.9951846 0 -0.09801866 0.896171 0.387149
1 1 1e-06 1.990369 0 -0.1960373 0.858224 0.387149
1 -1 1e-06 0.9951846 0 -0.09801866 0.858224 0.000000
1 -1 1e-06 1.990369 0 0.1960373 0.858224 0.000000
1 1 1e-06 0.9951846 0 0.09801866 0.858224 0.387149
0.980785 1 0.195091 1.990369 0 0.1960373 0.821006 0.387149
0.980785 -1 0.195091 0.9951846 0 0.09801866 0.821006 0.000000
0.980785 -1 0.195091 1.91388 0 0.5805719 0.821006 0.000000
0.980785 1 0.195091 0.95694 0 0.2902859 0.821006 0.387149
0.923879 1 0.382684 1.91388 0 0.5805719 0.785947 0.387149
0.923879 -1 0.382684 0.95694 0 0.2902859 0.785947 0.000000
0.923879 -1 0.382684 1.763843 0 0.9427934 0.785947 0.000000
0.923879 1 0.382684 0.8819214 0 0.4713967 0.785947 0.387149
0.831469 1 0.555571 1.763843 0 0.9427934 0.754395 0.387149
0.831469 -1 0.555571 0.8819214 0 0.4713967 0.754395 0.000000
0.831469 -1 0.555571 1.546022 0 1.268785 0.754395 0.000000
0.831469 1 0.555571 0.773011 0 0.6343927 0.754395 0.387149
0.707106 1 0.707108 1.546022 0 1.268785 0.727562 0.387149
0.707106 -1 0.707108 0.773011 0 0.6343927 0.727562 0.000000
0.707106 -1 0.707108 1.268779 0 1.546027 0.385285 0.774298
0.707106 1 0.707108 0.6343896 0 0.7730135 0.385285 0.387149
0.555569 1 0.83147 1.268779 0 1.546027 0.412118 0.387149
0.555569 -1 0.83147 0.6343896 0 0.7730135 0.412118 0.774298
0.555569 -1 0.83147 0.942793 0 1.763843 0.412118 0.774298
0.555569 1 0.83147 0.4713965 0 0.8819214 0.412118 0.387149
0.382682 1 0.92388 0.942793 0 1.763843 0.443670 0.387149
0.382682 -1 0.92388 0.4713965 0 0.8819214 0.443670 0.774298
-0.382683 1 0.92388 0 8 0 0.211616 0.770570
-0.19509 1 0.980785 0 1 0 0.173669 0.770570
0 1 1 0 3 0 0.136451 0.763166
0.195089 1 0.980786 0 1 0 0.101392 0.748645
0.382682 1 0.92388 0 5 0 0.069840 0.727562
0.555569 1 0.83147 0 1 0 0.043007 0.700730
0.707106 1 0.707108 0 3 0 0.021925 0.669178
0.831469 1 0.555571 0 1 0 0.007403 0.634119
0.923879 1 0.382684 0 7 0 0.000000 0.596901
0.980785 1 0.195091 0 1 0 0.000000 0.558954
1 1 1e-06 0 3 0 0.007403 0.521736
0.980785 1 -0.195089 0 1 0 0.021925 0.486677
0.92388 1 -0.382683 0 5 0 0.043007 0.455125
0.83147 1 -0.55557 0 1 0 0.069840 0.428292
0.707107 1 -0.707106 0 3 0 0.101392 0.407210
0.555571 1 -0.831469 0 1 0 0.136451 0.392688
0.382684 1 -0.923879 0 8 0 0.173669 0.385285
0.195091 1 -0.980785 0 1 0 0.211616 0.385285
0 1 -1 0 3 0 0.248834 0.392688
-0.19509 1 -0.980785 0 1 0 0.283893 0.407210
-0.382683 1 -0.92388 0 5 0 0.315445 0.428292
-0.55557 1 -0.83147 0 1 0 0.342277 0.455125
-0.707107 1 -0.707107 0 3 0 0.363360 0.486677
-0.83147 1 -0.55557 0 1 0 0.377882 0.521735
-0.92388 1 -0.382683 0 7 0 0.385285 0.558954
-0.980785 1 -0.19509 0 1 0 0.385285 0.596901
-1 1 0 0 3 0 0.377882 0.634119
-0.980785 1 0.19509 0 1 0 0.363360 0.669178
-0.92388 1 0.382683 0 5 0 0.342277 0.700730
-0.83147 1 0.55557 0 1 0 0.315445 0.727562
-0.707107 1 0.707107 0 3 0 0.283893 0.748645
-0.55557 1 0.83147 0 1 0 0.248834 0.763166
0.382682 -1 0.92388 0.5805725 0 1.91388 0.443670 0.774298
0.382682 1 0.92388 0.2902862 0 0.9569399 0.443670 0.387149
0.195089 1 0.980786 0.5805725 0 1.91388 0.478728 0.387149
0.195089 -1 0.980786 0.2902862 0 0.9569399 0.478728 0.774298
0 1 1 0.1960281 0 1.99037 0.515946 0.387149
0 -1 1 0.09801404 0 0.9951851 0.515946 0.774298
0.195089 -1 0.980786 0.1960281 0 1.99037 0.478728 0.774298
0.195089 1 0.980786 0.09801404 0 0.9951851 0.478728 0.387149
0.195089 -1 0.980786 0 -8 0 0.007403 0.248834
0 -1 1 0 -1 0 0.000000 0.211616
-0.19509 -1 0.980785 0 -3 0 0.000000 0.173669
-0.382683 -1 0.92388 0 -1 0 0.007403 0.136451
-0.55557 -1 0.83147 0 -5 0 0.021925 0.101392
-0.707107 -1 0.707107 0 -1 0 0.043007 0.069840
-0.83147 -1 0.55557 0 -3 0 0.069840 0.043007
-0.92388 -1 0.382683 0 -1 0 0.101392 0.021925
-0.980785 -1 0.19509 0 -7 0 0.136451 0.007403
-1 -1 0 0 -1 0 0.173669 0.000000
-0.980785 -1 -0.19509 0 -3 0 0.211616 0.000000
-0.92388 -1 -0.382683 0 -1 0 0.248834 0.007403
-0.83147 -1 -0.55557 0 -5 0 0.283893 0.021925
-0.707107 -1 -0.707107 0 -1 0 0.315445 0.043007
-0.55557 -1 -0.83147 0 -3 0 0.342277 0.069840
-0.382683 -1 -0.92388 0 -1 0 0.363360 0.101392
-0.19509 -1 -0.980785 0 -8 0 0.377882 0.136451
0 -1 -1 0 -1 0 0.385285 0.173669
0.195091 -1 -0.980785 0 -3 0 0.385285 0.211616
0.382684 -1 -0.923879 0 -1 0 0.377882 0.248834
0.555571 -1 -0.831469 0 -5 0 0.363360 0.283893
0.707107 -1 -0.707106 0 -1 0 0.342277 0.315445
0.83147 -1 -0.55557 0 -3 0 0.315445 0.342278
0.92388 -1 -0.382683 0 -1 0 0.283893 0.363360
0.980785 -1 -0.195089 0 -7 0 0.248834 0.377882
1 -1 1e-06 0 -1 0 0.211616 0.385285
0.980785 -1 0.195091 0 -3 0 0.173669 0.385285
0.923879 -1 0.382684 0 -1 0 0.136451 0.377882
0.831469 -1 0.555571 0 -5 0 0.101392 0.363360
0.707106 -1 0.707108 0 -1 0 0.069840 0.342277
0.555569 -1 0.83147 0 -3 0 0.043007 0.315445
0.382682 -1 0.92388 0 -1 0 0.021925 0.283893
3 0 1 2 
3 0 2 3 
3 4 5 6 
3 4 6 7 
3 8 9 10 
3 8 10 11 
3 12 13 14 
3 12 14 15 
3 16 17 18 
3 16 18 19 
3 20 21 22 
3 20 22 23 
3 24 25 26 
3 24 26 27 
3 28 29 30 
3 28 30 31 
3 32 33 34 
3 32 34 35 
3 36 37 38 
3 36 38 39 
3 40 41 42 
3 40 42 43 
3 44 45 46 
3 44 46 47 
3 48 49 50 
3 48 50 51 
3 52 53 54 
3 52 54 55 
3 56 57 58 
3 56 58 59 
3 60 61 62 
3 60 62 63 
3 64 65 66 
3 64 66 67 
3 68 69 70 
3 68 70 71 
3 72 73 74 
3 72 74 75 
3 76 77 78 
3 76 78 79 
3 80 81 82 
3 80 82 83 
3 84 85 86 
3 84 86 87 
3 88 89 90 
3 88 90 91 
3 92 93 94 
3 92 94 95 
3 96 97 98 
3 96 98 99 
3 100 101 102 
3 100 102 103 
3 104 105 106 
3 104 106 107 
3 108 109 110 
3 108 110 111 
3 112 113 114 
3 112 114 115 
3 116 117 118 
3 116 118 119 
3 120 121 122 
3 122 123 124 
3 124 125 126 
3 126 127 128 
3 128 129 130 
3 130 131 132 
3 132 133 134 
3 134 135 136 
3 136 137 138 
3 138 139 140 
3 140 141 142 
3 142 143 144 
3 144 145 146 
3 146 147 148 
3 148 149 150 
3 150 151 120 
3 120 122 124 
3 124 126 128 
3 128 130 132 
3 132 134 136 
3 136 138 140 
3 140 142 144 
3 144 146 148 
3 148 150 120 
3 120 124 128 
3 128 132 136 
3 136 140 144 
3 144 148 120 
3 120 128 136 
3 136 144 120 
3 152 153 154 
3 152 154 155 
3 156 157 158 
3 156 158 159 
3 160 161 162 
3 162 163 164 
3 164 165 166 
3 166 167 168 
3 168 169 170 
3 170 171 172 
3 172 173 174 
3 174 175 176 
3 176 177 178 
3 178 179 180 
3 180 181 182 
3 182 183 184 
3 184 185 186 
3 186 187 188 
3 188 189 190 
3 190 191 160 
3 160 162 164 
3 164 166 168 
3 168 170 172 
3 172 174 176 
3 176 178 180 
3 180 182 184 
3 184 186 188 
3 188 190 160 
3 160 164 168 
3 168 172 176 
3 176 180 184 
3 184 188 160 
3 160 168 176 
3 176 184 160 
