ply
format ascii 1.0
comment VCGLIB generated
element vertex 24
property float x
property float y
property float z
property float nx
property float ny
property float nz
property float texture_u
property float texture_v
element face 22
property list uchar int vertex_indices
end_header
-0.1397709 -1.986796 0 0 0 1 0.281027 0.000000
0.1397711 -1.986796 0 0 0 1 0.351377 0.000000
0.4848461 -1.932141 0 0 0 1 0.438219 0.013755
0.796142 -1.773528 0 0 0 1 0.516560 0.053671
1.043189 -1.526481 0 0 0 1 0.578732 0.115844
1.201802 -1.215184 0 0 0 1 0.618649 0.194185
1.256457 -0.870109 0 0 0 1 0.632404 0.281027
1.256457 0.8701091 0 0 0 1 0.632404 0.718973
1.201802 1.215184 0 0 0 1 0.618649 0.805815
1.043189 1.526481 0 0 0 1 0.578732 0.884156
0.7961419 1.773528 0 0 0 1 0.516560 0.946329
0.4848459 1.932141 0 0 0 1 0.438219 0.986245
0.1397709 1.986796 0 0 0 1 0.351377 1.000000
-0.1397711 1.986796 0 0 0 1 0.281027 1.000000
-0.4848461 1.932141 0 0 0 1 0.194185 0.986245
-0.796142 1.773528 0 0 0 1 0.115844 0.946329
-1.043189 1.526481 0 0 0 1 0.053671 0.884156
-1.201802 1.215184 0 0 0 1 0.013755 0.805815
-1.256457 0.870109 0 0 0 1 0.000000 0.718973
-1.256457 -0.8701091 0 0 0 1 0.000000 0.281027
-1.201802 -1.215184 0 0 0 1 0.013755 0.194185
-1.043189 -1.526481 0 0 0 1 0.053671 0.115844
-0.7961419 -1.773528 0 0 0 1 0.115844 0.053671
-0.4848459 -1.932141 0 0 0 1 0.194185 0.013755
3 0 1 2 
3 2 3 4 
3 4 5 6 
3 6 7 8 
3 8 9 10 
3 10 11 12 
3 12 13 14 
3 14 15 16 
3 16 17 18 
3 18 19 20 
3 20 21 22 
3 22 23 0 
3 0 2 4 
3 4 6 8 
3 8 10 12 
3 12 14 16 
3 16 18 20 
3 20 22 0 
3 0 4 8 
3 8 12 16 
3 16 20 0 
3 8 16 0 
